<svg width="1152" height="65" viewBox="0 0 1152 65" fill="none" xmlns="http://www.w3.org/2000/svg">
<g clip-path="url(#clip0_1_87)">
<path d="M38.8756 28.2956C41.0298 26.3337 43.9549 25.1886 46.9195 25.0462C47.9342 25.0462 48.9518 25.0519 49.9665 25.0432C49.9147 26.0809 49.9665 27.1214 49.936 28.159C49.7928 30.4784 48.8939 32.7454 47.3796 34.5649C45.4113 37.0122 42.4009 38.6543 39.2047 39.0787C37.8092 39.2938 36.3923 39.1572 34.9877 39.195C35.0121 38.0527 34.9359 36.9076 35.0304 35.7682C35.3046 32.9431 36.7032 30.2371 38.8756 28.2956Z" fill="#81818B"/>
<path d="M50.9061 25.0432C51.9939 25.0549 53.0816 25.0374 54.1724 25.049C56.8872 25.2321 59.5655 26.2261 61.6098 27.9498C63.8645 29.7954 65.4096 32.4345 65.8054 35.2538C65.9792 36.5617 65.8695 37.8841 65.9367 39.1978C64.9859 39.195 64.0383 39.1921 63.0875 39.1978C60.7507 39.1368 58.4533 38.416 56.4972 37.2011C55.5953 36.5849 54.669 35.9601 53.9926 35.1055C52.5088 33.5244 51.5002 31.5392 51.1194 29.4466C50.8329 27.9933 50.9487 26.511 50.9061 25.0432Z" fill="#81818B"/>
<path d="M34.9898 40.0291C35.9557 40.0813 36.9246 39.9854 37.8874 40.0872C42.0099 40.1714 46.0106 42.3804 48.1464 45.7432C49.3714 47.6266 50.0295 49.8589 49.9442 52.0763C49.9411 52.8035 49.9533 53.5269 49.932 54.2509C48.4024 54.2068 46.8576 54.326 45.3432 54.044C41.9795 53.5038 38.8869 51.5939 37.0251 48.8677C35.6144 46.8854 34.9106 44.4644 34.9837 42.0723C34.9837 41.3892 34.9837 40.7091 34.9898 40.0291Z" fill="#81818B"/>
<path d="M60.7884 40.337C62.446 39.9853 64.1548 40.0434 65.8401 40.0434L65.9136 40.1132C65.8768 41.6333 66.0018 43.1708 65.6821 44.6735C65.0085 48.045 62.6686 51.0559 59.5209 52.7097C57.5617 53.7506 55.3131 54.2619 53.0736 54.2388C52.3576 54.242 51.6385 54.2273 50.9225 54.2472C50.9225 52.9888 50.8676 51.7248 51.0169 50.4717C51.3643 47.4404 53.0827 44.6182 55.5538 42.7116C57.0833 41.5606 58.8811 40.7265 60.7884 40.337Z" fill="#81818B"/>
<path d="M78.4217 48.6211C78.4217 49.1328 78.2359 49.5657 77.8652 49.92C77.514 50.2547 77.0704 50.422 76.5344 50.422C76.0183 50.422 75.5852 50.2547 75.2345 49.92C74.8838 49.5657 74.7084 49.1328 74.7084 48.6211V30.3775C74.7084 29.8658 74.8838 29.4427 75.2345 29.1082C75.6056 28.7539 76.0598 28.5768 76.5963 28.5768C77.1323 28.5768 77.5654 28.7539 77.8957 29.1082C78.2464 29.4427 78.4217 29.8658 78.4217 30.3775V48.6211Z" fill="#81818B"/>
<path d="M93.3275 34.6284C93.8636 34.6284 94.3072 34.8055 94.6584 35.1598C95.0086 35.4943 95.1839 35.9174 95.1839 36.4291V43.9273C95.1839 46.0134 94.5754 47.6665 93.3585 48.8867C92.141 50.1069 90.3875 50.7168 88.0969 50.7168C85.8074 50.7168 84.0534 50.1069 82.8365 48.8867C81.64 47.6665 81.0415 46.0134 81.0415 43.9273V36.4291C81.0415 35.9174 81.2168 35.4943 81.5675 35.1598C81.9182 34.8055 82.3618 34.6284 82.8984 34.6284C83.4349 34.6284 83.878 34.8055 84.2287 35.1598C84.58 35.4943 84.7553 35.9174 84.7553 36.4291V43.9273C84.7553 45.1278 85.0341 46.0232 85.5906 46.6136C86.1476 47.1844 86.9834 47.4697 88.0969 47.4697C89.2325 47.4697 90.0778 47.1844 90.6353 46.6136C91.1918 46.0232 91.4706 45.1278 91.4706 43.9273V36.4291C91.4706 35.9174 91.646 35.4943 91.9967 35.1598C92.3474 34.8055 92.791 34.6284 93.3275 34.6284Z" fill="#81818B"/>
<path d="M106.353 34.3333C108.004 34.3333 109.221 34.717 110.005 35.4845C110.789 36.2324 111.305 37.2065 111.552 38.407L111.026 38.1413L111.274 37.669C111.521 37.2163 111.903 36.7342 112.419 36.2225C112.935 35.6912 113.554 35.2484 114.276 34.8941C115.018 34.5202 115.844 34.3333 116.751 34.3333C118.237 34.3333 119.361 34.6383 120.125 35.2483C120.909 35.8584 121.445 36.6752 121.734 37.6986C122.023 38.7022 122.167 39.824 122.167 41.0639V48.6211C122.167 49.1328 121.992 49.5656 121.641 49.92C121.29 50.2547 120.847 50.422 120.31 50.422C119.774 50.422 119.33 50.2547 118.98 49.92C118.629 49.5656 118.453 49.1328 118.453 48.6211V41.0639C118.453 40.4144 118.371 39.8339 118.206 39.3221C118.041 38.7908 117.742 38.3677 117.308 38.0528C116.875 37.7379 116.256 37.5804 115.452 37.5804C114.668 37.5804 113.997 37.7379 113.44 38.0528C112.883 38.3677 112.46 38.7908 112.171 39.3221C111.903 39.8339 111.769 40.4144 111.769 41.0639V48.6211C111.769 49.1328 111.593 49.5656 111.243 49.92C110.892 50.2547 110.448 50.422 109.912 50.422C109.376 50.422 108.932 50.2547 108.582 49.92C108.231 49.5656 108.055 49.1328 108.055 48.6211V41.0639C108.055 40.4144 107.973 39.8339 107.808 39.3221C107.643 38.7908 107.343 38.3677 106.91 38.0528C106.477 37.7379 105.858 37.5804 105.053 37.5804C104.27 37.5804 103.599 37.7379 103.042 38.0528C102.485 38.3677 102.062 38.7908 101.773 39.3221C101.505 39.8339 101.371 40.4144 101.371 41.0639V48.6211C101.371 49.1328 101.196 49.5656 100.845 49.92C100.494 50.2547 100.051 50.422 99.5141 50.422C98.9776 50.422 98.5345 50.2547 98.1832 49.92C97.8325 49.5656 97.6572 49.1328 97.6572 48.6211V36.4292C97.6572 35.9175 97.8325 35.4943 98.1832 35.1598C98.5345 34.8055 98.9776 34.6285 99.5141 34.6285C100.051 34.6285 100.494 34.8055 100.845 35.1598C101.196 35.4943 101.371 35.9175 101.371 36.4292V37.6986L100.906 37.61C101.092 37.2754 101.351 36.9211 101.68 36.5472C102.01 36.1536 102.413 35.7895 102.887 35.455C103.362 35.1204 103.888 34.8547 104.465 34.6579C105.043 34.4415 105.673 34.3333 106.353 34.3333Z" fill="#81818B"/>
<path d="M128.136 48.6211C128.136 49.1328 127.961 49.5656 127.609 49.92C127.259 50.2547 126.816 50.422 126.279 50.422C125.743 50.422 125.299 50.2547 124.948 49.92C124.598 49.5656 124.423 49.1328 124.423 48.6211V36.4292C124.423 35.9175 124.598 35.4943 124.948 35.1598C125.299 34.8055 125.743 34.6285 126.279 34.6285C126.816 34.6285 127.259 34.8055 127.609 35.1598C127.961 35.4943 128.136 35.9175 128.136 36.4292V48.6211ZM126.248 32.7096C125.547 32.7096 125.052 32.6014 124.762 32.3849C124.474 32.1684 124.33 31.7846 124.33 31.2336V30.6727C124.33 30.102 124.485 29.7182 124.793 29.5214C125.124 29.3049 125.619 29.1967 126.279 29.1967C127.002 29.1967 127.507 29.3049 127.795 29.5214C128.085 29.7379 128.229 30.1217 128.229 30.6727V31.2336C128.229 31.8043 128.074 32.1979 127.764 32.4144C127.456 32.6112 126.95 32.7096 126.248 32.7096Z" fill="#81818B"/>
<path d="M139.256 34.3333C140.783 34.3333 141.938 34.6383 142.722 35.2483C143.527 35.8584 144.073 36.6752 144.362 37.6986C144.672 38.7022 144.826 39.824 144.826 41.0639V48.6211C144.826 49.1328 144.651 49.5656 144.3 49.92C143.95 50.2547 143.506 50.422 142.969 50.422C142.433 50.422 141.99 50.2547 141.639 49.92C141.288 49.5656 141.112 49.1328 141.112 48.6211V41.0639C141.112 40.4144 141.02 39.8339 140.835 39.3221C140.669 38.7908 140.36 38.3677 139.906 38.0528C139.452 37.7379 138.802 37.5804 137.956 37.5804C137.131 37.5804 136.429 37.7379 135.852 38.0528C135.295 38.3677 134.862 38.7908 134.552 39.3221C134.263 39.8339 134.118 40.4144 134.118 41.0639V48.6211C134.118 49.1328 133.944 49.5656 133.593 49.92C133.242 50.2547 132.798 50.422 132.262 50.422C131.725 50.422 131.282 50.2547 130.932 49.92C130.58 49.5656 130.405 49.1328 130.405 48.6211V36.4292C130.405 35.9175 130.58 35.4943 130.932 35.1598C131.282 34.8055 131.725 34.6285 132.262 34.6285C132.798 34.6285 133.242 34.8055 133.593 35.1598C133.944 35.4943 134.118 35.9175 134.118 36.4292V37.6986L133.655 37.61C133.841 37.2754 134.108 36.9211 134.459 36.5472C134.81 36.1536 135.223 35.7895 135.697 35.455C136.172 35.1204 136.708 34.8547 137.306 34.6579C137.905 34.4415 138.555 34.3333 139.256 34.3333Z" fill="#81818B"/>
<path d="M163.2 42.5398C163.2 44.1536 162.818 45.5805 162.055 46.8203C161.312 48.0405 160.301 48.995 159.022 49.6837C157.763 50.3728 156.35 50.7168 154.782 50.7168C153.214 50.7168 151.79 50.3728 150.512 49.6837C149.253 48.995 148.242 48.0405 147.479 46.8203C146.736 45.5805 146.365 44.1536 146.365 42.5398C146.365 40.9261 146.736 39.5091 147.479 38.2889C148.242 37.0491 149.253 36.0848 150.512 35.396C151.79 34.6875 153.214 34.3333 154.782 34.3333C156.35 34.3333 157.763 34.6875 159.022 35.396C160.301 36.0848 161.312 37.0491 162.055 38.2889C162.818 39.5091 163.2 40.9261 163.2 42.5398ZM159.486 42.5398C159.486 41.5362 159.27 40.6703 158.836 39.9421C158.423 39.1942 157.856 38.6137 157.134 38.2004C156.433 37.7871 155.649 37.5804 154.782 37.5804C153.916 37.5804 153.121 37.7871 152.399 38.2004C151.698 38.6137 151.13 39.1942 150.697 39.9421C150.285 40.6703 150.078 41.5362 150.078 42.5398C150.078 43.5239 150.285 44.3898 150.697 45.1377C151.13 45.8658 151.698 46.4365 152.399 46.8498C153.121 47.2632 153.916 47.4697 154.782 47.4697C155.649 47.4697 156.433 47.2632 157.134 46.8498C157.856 46.4365 158.423 45.8658 158.836 45.1377C159.27 44.3898 159.486 43.5239 159.486 42.5398Z" fill="#81818B"/>
<path d="M177.041 34.6284C177.577 34.6284 178.021 34.8055 178.372 35.1598C178.722 35.4943 178.898 35.9174 178.898 36.4291V43.9273C178.898 46.0134 178.289 47.6665 177.072 48.8867C175.854 50.1069 174.101 50.7168 171.811 50.7168C169.521 50.7168 167.767 50.1069 166.55 48.8867C165.353 47.6665 164.755 46.0134 164.755 43.9273V36.4291C164.755 35.9174 164.93 35.4943 165.281 35.1598C165.632 34.8055 166.075 34.6284 166.612 34.6284C167.148 34.6284 167.592 34.8055 167.943 35.1598C168.293 35.4943 168.469 35.9174 168.469 36.4291V43.9273C168.469 45.1278 168.747 46.0232 169.304 46.6136C169.861 47.1844 170.697 47.4697 171.811 47.4697C172.945 47.4697 173.792 47.1844 174.348 46.6136C174.906 46.0232 175.184 45.1278 175.184 43.9273V36.4291C175.184 35.9174 175.36 35.4943 175.71 35.1598C176.061 34.8055 176.505 34.6284 177.041 34.6284Z" fill="#81818B"/>
<path d="M180.411 47.9716C180.205 47.6961 180.112 47.3419 180.133 46.9089C180.154 46.4759 180.422 46.102 180.938 45.7871C181.268 45.5903 181.618 45.5116 181.99 45.551C182.361 45.5707 182.722 45.7477 183.073 46.0823C183.672 46.653 184.301 47.0958 184.961 47.4107C185.621 47.7256 186.446 47.883 187.436 47.883C187.746 47.8633 188.086 47.824 188.458 47.765C188.829 47.6863 189.149 47.5288 189.417 47.2927C189.705 47.0368 189.85 46.653 189.85 46.1413C189.85 45.7084 189.695 45.364 189.386 45.1081C189.076 44.8523 188.664 44.6359 188.148 44.4587C187.653 44.2816 187.096 44.1143 186.477 43.9569C185.837 43.7797 185.177 43.583 184.496 43.3665C183.836 43.15 183.227 42.8745 182.67 42.5398C182.114 42.1856 181.66 41.7232 181.309 41.1524C180.958 40.5817 180.783 39.8633 180.783 38.9975C180.783 38.0134 181.071 37.177 181.649 36.4882C182.227 35.7994 182.97 35.2681 183.877 34.8941C184.806 34.5202 185.775 34.3333 186.786 34.3333C187.426 34.3333 188.096 34.4119 188.798 34.5694C189.499 34.7072 190.17 34.9433 190.81 35.2779C191.449 35.5927 191.986 36.0159 192.419 36.5472C192.645 36.8424 192.78 37.1967 192.821 37.61C192.862 38.0233 192.666 38.3972 192.233 38.7318C191.924 38.9679 191.563 39.0762 191.15 39.0565C190.738 39.0171 190.397 38.8794 190.129 38.6432C189.778 38.2102 189.304 37.8658 188.705 37.61C188.127 37.3542 187.457 37.2262 186.694 37.2262C186.384 37.2262 186.044 37.2656 185.672 37.3443C185.322 37.4033 185.012 37.551 184.744 37.7871C184.476 38.0036 184.342 38.3578 184.342 38.8498C184.342 39.3025 184.496 39.6666 184.806 39.9421C185.115 40.1979 185.528 40.4144 186.044 40.5916C186.58 40.749 187.148 40.9065 187.746 41.0639C188.365 41.2213 188.994 41.4083 189.634 41.6247C190.274 41.8413 190.861 42.1266 191.398 42.4808C191.934 42.8351 192.367 43.2976 192.697 43.8683C193.028 44.4193 193.192 45.1278 193.192 45.9938C193.192 46.9975 192.883 47.8536 192.264 48.562C191.645 49.2706 190.871 49.8117 189.943 50.1857C189.015 50.5401 188.065 50.7168 187.096 50.7168C185.879 50.7168 184.662 50.5204 183.444 50.1267C182.227 49.7132 181.216 48.995 180.411 47.9716Z" fill="#81818B"/>
<path d="M272.174 45.3943L283.833 40.3411L290.544 44.1308L291.9 56.564L283.63 56.4979L284.85 47.8539L283.427 47.0561L276.445 52.3753L272.174 45.3943Z" fill="#81818B"/>
<path d="M291.291 43.5985L301.595 50.9783L305.662 43.8645L297.391 40.6066V39.0109L305.662 35.6866L301.595 28.6389L291.291 36.019V43.5985Z" fill="#81818B"/>
<path d="M290.544 35.4209L291.9 22.9878L283.63 23.1208L284.85 31.7641L283.427 32.5619L276.377 27.243L272.174 34.1576L283.833 39.2107L290.544 35.4209Z" fill="#81818B"/>
<path d="M333.252 38.2858V49.934H337.703V35.0895H331.222V38.2858H333.252Z" fill="#81818B"/>
<path d="M333.113 33.0038C333.521 33.4191 334.143 33.6267 334.977 33.6267C335.812 33.6267 336.424 33.4191 336.813 33.0038C337.221 32.5702 337.425 32.0284 337.425 31.3785C337.425 30.7102 337.221 30.1685 336.813 29.7532C336.424 29.3198 335.812 29.103 334.977 29.103C334.143 29.103 333.521 29.3198 333.113 29.7532C332.724 30.1685 332.53 30.7102 332.53 31.3785C332.53 32.0284 332.724 32.5702 333.113 33.0038Z" fill="#81818B"/>
<path d="M317.758 49.6087C319.019 50.1685 320.567 50.4486 322.403 50.4486C324.128 50.4486 325.611 50.1864 326.854 49.6629C328.097 49.1393 329.052 48.4078 329.719 47.4686C330.406 46.5115 330.749 45.401 330.749 44.1368C330.749 42.9089 330.425 41.8705 329.775 41.0216C329.144 40.1549 328.264 39.4777 327.133 38.9902C326.001 38.4844 324.693 38.1684 323.21 38.0422L321.652 37.9067C320.725 37.8343 320.057 37.5907 319.649 37.1752C319.241 36.7599 319.037 36.2722 319.037 35.7126C319.037 35.279 319.149 34.8818 319.37 34.5206C319.594 34.1414 319.927 33.8434 320.372 33.6266C320.836 33.4101 321.402 33.3017 322.069 33.3017C322.774 33.3017 323.358 33.4279 323.822 33.6809C323.924 33.7344 324.021 33.7915 324.112 33.8521L324.134 33.8672C324.168 33.8901 324.201 33.9139 324.234 33.9379C324.516 34.1474 324.74 34.3959 324.907 34.6832C325.148 35.0805 325.269 35.5228 325.269 36.0105H329.719C329.719 34.7101 329.413 33.5815 328.802 32.6245C328.19 31.6493 327.309 30.8999 326.159 30.376C325.027 29.8343 323.664 29.5634 322.069 29.5634C320.549 29.5634 319.232 29.8164 318.119 30.3219C317.006 30.8096 316.135 31.5138 315.504 32.4347C314.892 33.3557 314.586 34.4484 314.586 35.7126C314.586 37.4642 315.189 38.8727 316.394 39.9383C317.6 41.0037 319.213 41.6177 321.235 41.7802L322.765 41.9157C324.007 42.0241 324.907 42.2679 325.464 42.6469C326.02 43.0081 326.298 43.5047 326.298 44.1368C326.298 44.4273 326.249 44.6997 326.151 44.9543C326.079 45.1433 325.979 45.3222 325.853 45.4913C325.555 45.8703 325.12 46.1683 324.545 46.3854C323.97 46.6019 323.256 46.7102 322.403 46.7102C321.457 46.7102 320.688 46.584 320.094 46.3308C319.501 46.0601 319.056 45.7079 318.758 45.2748C318.481 44.8411 318.342 44.3717 318.342 43.8659H313.918C313.918 45.1481 314.243 46.286 314.892 47.2789C315.541 48.2543 316.496 49.0311 317.758 49.6087Z" fill="#81818B"/>
<path d="M347.635 50.1233C346.095 50.1233 344.853 49.943 343.907 49.5815C342.961 49.2025 342.266 48.5792 341.82 47.7125C341.394 46.8275 341.18 45.6359 341.18 44.1368V38.2587H338.872V35.0895H341.18V31.0806H345.325V35.0895H349.777V38.2587H345.325V44.2996C345.325 45.0038 345.511 45.5455 345.882 45.9245C346.271 46.286 346.818 46.4664 347.524 46.4664H349.777V50.1233H347.635Z" fill="#81818B"/>
<path fill-rule="evenodd" clip-rule="evenodd" d="M355.136 49.7984C356.137 50.2316 357.287 50.4486 358.585 50.4486C359.865 50.4486 360.997 50.2316 361.979 49.7984C362.962 49.3648 363.779 48.7599 364.427 47.9836C365.076 47.2068 365.513 46.3218 365.735 45.3289H361.646C361.46 45.7804 361.108 46.1594 360.589 46.4663C360.069 46.7733 359.401 46.9272 358.585 46.9272C358.08 46.9272 357.628 46.8686 357.23 46.7522C356.927 46.6637 356.656 46.5415 356.415 46.3854C355.859 46.0243 355.451 45.5182 355.191 44.8683C355.119 44.6832 355.058 44.4895 355.006 44.2878C354.953 44.0834 354.91 43.8708 354.878 43.6494H366.013V42.1865C366.013 40.8321 365.716 39.5861 365.123 38.4485C364.529 37.2925 363.667 36.3625 362.536 35.6583C361.423 34.9359 360.051 34.5747 358.418 34.5747C357.176 34.5747 356.063 34.7915 355.08 35.2249C354.116 35.6402 353.309 36.209 352.66 36.9314C352.011 37.6537 351.51 38.4756 351.157 39.3966C350.824 40.2993 350.657 41.2474 350.657 42.2407V42.7824C350.657 43.7397 350.824 44.6786 351.157 45.5997C351.51 46.5026 352.011 47.3241 352.66 48.0646C353.327 48.7872 354.152 49.3648 355.136 49.7984ZM354.955 40.9708C354.967 40.9135 354.98 40.857 354.994 40.8014C355.033 40.6483 355.077 40.5015 355.128 40.3613C355.157 40.2814 355.187 40.2035 355.22 40.1278C355.497 39.4596 355.906 38.954 356.443 38.611C356.644 38.4827 356.862 38.3784 357.096 38.2982C357.49 38.1636 357.931 38.0963 358.418 38.0963C359.179 38.0963 359.809 38.2679 360.31 38.611C360.829 38.9359 361.219 39.4145 361.479 40.0465C361.5 40.0975 361.52 40.1495 361.539 40.202C361.569 40.2858 361.598 40.3717 361.625 40.4598C361.664 40.5909 361.698 40.7266 361.728 40.8668C361.751 40.9702 361.769 41.076 361.786 41.1844H354.912C354.925 41.112 354.939 41.0409 354.955 40.9708Z" fill="#81818B"/>
<path d="M367.85 49.934V35.0895H371.383V38.8282C371.431 38.6059 371.486 38.3926 371.546 38.1881C371.599 38.0157 371.655 37.8495 371.717 37.6899C372.106 36.6785 372.69 35.9202 373.469 35.4144C374.248 34.8907 375.203 34.629 376.335 34.629H376.529C377.679 34.629 378.634 34.8907 379.395 35.4144C380.174 35.9202 380.758 36.6785 381.147 37.6899L381.178 37.7662L381.204 37.836C381.222 37.7867 381.24 37.7381 381.258 37.6899C381.666 36.6785 382.26 35.9202 383.039 35.4144C383.818 34.8907 384.773 34.629 385.905 34.629H386.099C387.249 34.629 388.213 34.8907 388.992 35.4144C389.79 35.9202 390.393 36.6785 390.8 37.6899C391.208 38.7012 391.413 39.9654 391.413 41.4823V49.934H386.961V41.2384C386.961 40.4258 386.739 39.7667 386.294 39.2611C385.867 38.7553 385.255 38.5025 384.458 38.5025C383.66 38.5025 383.03 38.7645 382.566 39.2881C382.103 39.7937 381.871 40.4709 381.871 41.3198V49.934H377.392V41.2384C377.392 40.4258 377.169 39.7667 376.724 39.2611C376.298 38.7553 375.694 38.5025 374.916 38.5025C374.1 38.5025 373.46 38.7645 372.996 39.2881C372.533 39.7937 372.301 40.4709 372.301 41.3198V49.934H367.85Z" fill="#81818B"/>
<path fill-rule="evenodd" clip-rule="evenodd" d="M403.303 47.0736V49.9341H406.835V40.8322C406.835 39.4597 406.557 38.3402 406.001 37.4732C405.444 36.5883 404.629 35.9293 403.553 35.4959C402.496 35.0625 401.188 34.8457 399.63 34.8457C399.293 34.8457 398.94 34.8492 398.573 34.8564C398.356 34.8608 398.133 34.8662 397.906 34.8728C397.293 34.8909 396.7 34.9179 396.125 34.9541L395.686 34.9829C395.46 34.9982 395.249 35.0132 395.049 35.0285C394.9 35.0398 394.757 35.0512 394.623 35.0625V38.7195C395.198 38.6832 395.838 38.6471 396.543 38.6111C396.74 38.601 396.935 38.5916 397.129 38.5829C397.409 38.5703 397.685 38.5593 397.959 38.5498C398.175 38.5421 398.389 38.5353 398.601 38.5297C399.269 38.5116 399.807 38.5026 400.215 38.5026C401.03 38.5026 401.624 38.6922 401.995 39.0715C402.366 39.4507 402.551 40.0196 402.551 40.7782V40.8322H399.797C398.444 40.8322 397.247 41.0038 396.208 41.347C395.17 41.672 394.363 42.1866 393.789 42.8909C393.213 43.5773 392.926 44.4621 392.926 45.5456C392.926 46.5389 393.158 47.3967 393.621 48.1193C394.085 48.8231 394.725 49.3649 395.541 49.7439C396.376 50.1234 397.34 50.3131 398.434 50.3131C399.491 50.3131 400.382 50.1234 401.105 49.7439C401.847 49.3649 402.422 48.8231 402.83 48.1193C402.902 48.0003 402.968 47.8772 403.031 47.7493C403.119 47.5685 403.198 47.3783 403.267 47.1787L403.303 47.0736ZM402.551 44.4351V43.2431H399.769C398.99 43.2431 398.388 43.4327 397.961 43.812C397.553 44.1732 397.349 44.6698 397.349 45.3018C397.349 45.5993 397.4 45.8696 397.501 46.1134C397.604 46.3577 397.757 46.5747 397.961 46.7644C398.388 47.126 398.99 47.3063 399.769 47.3063C399.917 47.3063 400.061 47.2991 400.199 47.2853C400.312 47.2736 400.422 47.2571 400.529 47.236C400.732 47.1958 400.925 47.1376 401.105 47.0624C401.513 46.8821 401.847 46.5841 402.106 46.1684C402.366 45.7532 402.515 45.1751 402.551 44.4351Z" fill="#81818B"/>
<path d="M409.499 49.9341V35.0895H413.033V39.9892C413.202 38.5905 413.628 37.4627 414.312 36.6065C415.24 35.4689 416.574 34.9 418.318 34.9H418.903V38.6381H417.79C416.566 38.6381 415.62 38.9631 414.952 39.6132C414.284 40.2453 413.95 41.1664 413.95 42.3761V49.9341H409.499Z" fill="#81818B"/>
<path d="M424.547 42.9993H426.021L430.834 49.9341H435.841L429.739 41.4174L434.756 35.0896H430.083L424.547 42.1478V30.1595H420.096V49.9341H424.547V42.9993Z" fill="#81818B"/>
<path d="M560.248 30.8004C561.836 30.8004 563.21 31.0559 564.37 31.567C565.548 32.0781 566.452 32.8034 567.084 33.7432C567.715 34.6829 568.031 35.7957 568.031 37.0816C568.031 38.351 567.715 39.4638 567.084 40.42C566.452 41.3597 565.548 42.0851 564.37 42.5964C563.21 43.0907 561.836 43.3381 560.248 43.3381H556.639V48.1109H552.492V30.8004H560.248ZM560.018 40.0738C561.264 40.0738 562.211 39.8183 562.86 39.3072C563.508 38.7796 563.832 38.0378 563.832 37.0816C563.832 36.1089 563.508 35.367 562.86 34.856C562.211 34.3284 561.264 34.0647 560.018 34.0647H556.639V40.0738H560.018Z" fill="#81818B"/>
<path d="M573.245 36.5623C573.722 35.9194 574.363 35.433 575.164 35.1033C575.984 34.7736 576.922 34.6088 577.981 34.6088V38.1697C577.537 38.1368 577.238 38.1203 577.084 38.1203C575.941 38.1203 575.045 38.4335 574.397 39.06C573.748 39.6699 573.424 40.5932 573.424 41.8296V48.111H569.43V34.8066H573.245V36.5623Z" fill="#81818B"/>
<path d="M585.504 48.3085C584.053 48.3085 582.748 48.0203 581.587 47.4431C580.444 46.8498 579.548 46.0334 578.899 44.9948C578.251 43.9562 577.927 42.7774 577.927 41.4587C577.927 40.1398 578.251 38.9611 578.899 37.9224C579.548 36.8838 580.444 36.076 581.587 35.499C582.748 34.9055 584.053 34.6088 585.504 34.6088C586.954 34.6088 588.252 34.9055 589.395 35.499C590.539 36.076 591.435 36.8838 592.084 37.9224C592.732 38.9611 593.056 40.1398 593.056 41.4587C593.056 42.7774 592.732 43.9562 592.084 44.9948C591.435 46.0334 590.539 46.8498 589.395 47.4431C588.252 48.0203 586.954 48.3085 585.504 48.3085ZM585.504 45.1432C586.528 45.1432 587.364 44.8138 588.013 44.1541C588.679 43.4783 589.011 42.5799 589.011 41.4587C589.011 40.3377 588.679 39.4474 588.013 38.7879C587.364 38.112 586.528 37.774 585.504 37.774C584.48 37.774 583.635 38.112 582.97 38.7879C582.304 39.4474 581.971 40.3377 581.971 41.4587C581.971 42.5799 582.304 43.4783 582.97 44.1541C583.635 44.8138 584.48 45.1432 585.504 45.1432Z" fill="#81818B"/>
<path d="M611.163 30.8004V48.1109H607.758L598.823 37.6009V48.1109H594.727V30.8004H598.157L607.067 41.3103V30.8004H611.163Z" fill="#81818B"/>
<path d="M619.396 34.6088C621.529 34.6088 623.168 35.1033 624.311 36.0925C625.455 37.0652 626.026 38.5407 626.026 40.519V48.111H622.289V46.4539C621.538 47.6905 620.139 48.3085 618.091 48.3085C617.032 48.3085 616.11 48.1357 615.325 47.7894C614.558 47.4431 613.969 46.9652 613.559 46.355C613.15 45.7452 612.945 45.0525 612.945 44.2778C612.945 43.0413 613.423 42.0687 614.378 41.3598C615.351 40.6509 616.845 40.2965 618.859 40.2965H622.033C622.033 39.4556 621.769 38.8127 621.239 38.3676C620.71 37.9059 619.917 37.6751 618.859 37.6751C618.125 37.6751 617.399 37.7905 616.683 38.0214C615.983 38.2357 615.385 38.5325 614.89 38.9116L613.457 36.2161C614.208 35.7051 615.103 35.3094 616.144 35.0291C617.203 34.7489 618.287 34.6088 619.396 34.6088ZM619.089 45.7122C619.772 45.7122 620.377 45.5638 620.906 45.2669C621.435 44.9536 621.811 44.5004 622.033 43.9067V42.547H619.294C617.655 42.547 616.836 43.066 616.836 44.1047C616.836 44.5994 617.032 44.9948 617.425 45.2917C617.834 45.572 618.389 45.7122 619.089 45.7122Z" fill="#81818B"/>
<path d="M637.244 47.4678C636.852 47.7481 636.365 47.9625 635.785 48.1109C635.222 48.2425 634.624 48.3084 633.993 48.3084C632.355 48.3084 631.083 47.9048 630.179 47.0971C629.291 46.289 628.847 45.102 628.847 43.536V38.0708H626.723V35.1033H628.847V31.8638H632.841V35.1033H636.271V38.0708H632.841V43.4865C632.841 44.0469 632.986 44.4839 633.276 44.7972C633.583 45.0937 634.01 45.2421 634.556 45.2421C635.188 45.2421 635.725 45.0772 636.169 44.7478L637.244 47.4678Z" fill="#81818B"/>
<path d="M652.082 34.8066V48.111H648.293V46.5282C647.764 47.105 647.132 47.5503 646.398 47.8637C645.664 48.1605 644.871 48.3085 644.017 48.3085C642.208 48.3085 640.775 47.806 639.716 46.8003C638.658 45.7947 638.129 44.3026 638.129 42.3244V34.8066H642.123V41.7554C642.123 43.8985 643.053 44.9701 644.913 44.9701C645.869 44.9701 646.637 44.6737 647.218 44.0799C647.797 43.4701 648.088 42.5718 648.088 41.3846V34.8066H652.082Z" fill="#81818B"/>
<path d="M658.316 36.5623C658.793 35.9194 659.434 35.433 660.236 35.1033C661.055 34.7736 661.994 34.6088 663.052 34.6088V38.1697C662.608 38.1368 662.309 38.1203 662.156 38.1203C661.012 38.1203 660.116 38.4335 659.468 39.06C658.819 39.6699 658.495 40.5932 658.495 41.8296V48.111H654.501V34.8066H658.316V36.5623Z" fill="#81818B"/>
<path d="M677.513 41.5084C677.513 41.5574 677.488 41.9037 677.436 42.547H667.017C667.204 43.3712 667.648 44.0222 668.348 44.5004C669.048 44.9783 669.918 45.2174 670.959 45.2174C671.676 45.2174 672.307 45.1185 672.853 44.9206C673.417 44.7066 673.937 44.3768 674.415 43.9315L676.54 46.1571C675.243 47.5915 673.348 48.3085 670.856 48.3085C669.304 48.3085 667.93 48.0203 666.735 47.4431C665.54 46.8498 664.619 46.0334 663.97 44.9948C663.321 43.9562 662.997 42.7774 662.997 41.4587C662.997 40.1563 663.313 38.9858 663.945 37.9472C664.593 36.892 665.472 36.076 666.581 35.499C667.708 34.9055 668.962 34.6088 670.345 34.6088C671.693 34.6088 672.913 34.889 674.006 35.4495C675.098 36.01 675.951 36.8179 676.566 37.873C677.197 38.9116 677.513 40.1233 677.513 41.5084ZM670.37 37.5268C669.466 37.5268 668.706 37.774 668.092 38.2686C667.477 38.7633 667.102 39.4392 666.965 40.2965H673.75C673.613 39.4556 673.237 38.7879 672.623 38.2934C672.009 37.7823 671.258 37.5268 670.37 37.5268Z" fill="#81818B"/>
<path fill-rule="evenodd" clip-rule="evenodd" d="M529.748 21.1602C529.14 20.8201 528.389 20.8201 527.781 21.1602C523.459 23.5752 520.544 28.0939 520.544 33.2725C520.544 34.0105 520.603 34.7352 520.717 35.4423C517.742 34.4663 514.52 34.8214 511.889 36.286C511.28 36.6251 510.905 37.2526 510.905 37.9317C510.908 41.5141 512.835 45.0055 516.285 46.9297C517.978 47.8739 519.826 48.3225 521.648 48.3233C521.371 49.0824 521.22 49.8987 521.22 50.7493C521.22 54.7743 524.598 58.0366 528.764 58.0366C532.931 58.0366 536.308 54.7743 536.308 50.7493C536.308 49.8966 536.157 49.0786 535.879 48.3184C537.592 48.266 539.318 47.8166 540.908 46.9297C544.359 45.0055 546.285 41.5141 546.287 37.9318C546.288 37.2528 545.913 36.6252 545.304 36.2862C542.777 34.8792 539.704 34.4961 536.829 35.3333C536.932 34.6608 536.985 33.9727 536.985 33.2725C536.985 28.0939 534.07 23.5752 529.748 21.1602ZM524.472 33.2725C524.472 29.9096 526.158 26.9253 528.764 25.0677C531.371 26.9253 533.056 29.9096 533.056 33.2725C533.056 36.6352 531.371 39.6196 528.764 41.4771C526.158 39.6196 524.472 36.6352 524.472 33.2725ZM536.512 39.5744C538.326 38.5626 540.422 38.445 542.253 39.0851C541.912 40.937 540.758 42.6315 538.944 43.6433C537.13 44.655 535.033 44.7725 533.202 44.1327C533.544 42.2806 534.698 40.5861 536.512 39.5744ZM514.94 39.085C516.771 38.4448 518.868 38.5625 520.682 39.5742C522.496 40.5859 523.649 42.2806 523.991 44.1322C522.16 44.7725 520.064 44.655 518.25 43.6433C516.436 42.6315 515.282 40.9368 514.94 39.085ZM525.149 50.7493C525.149 48.8205 526.767 47.2567 528.764 47.2567C530.761 47.2567 532.38 48.8205 532.38 50.7493C532.38 52.678 530.761 54.2419 528.764 54.2419C526.767 54.2419 525.149 52.678 525.149 50.7493Z" fill="#81818B"/>
<path d="M804.887 51.8316C802.53 51.8316 800.447 51.3567 798.637 50.4079C796.827 49.4371 795.428 48.0673 794.439 46.2989C793.45 44.5302 792.955 42.4487 792.955 40.0545C792.955 37.6603 793.45 35.5789 794.439 33.8102C795.428 32.0199 796.827 30.6503 798.637 29.7012C800.447 28.7305 802.53 28.2452 804.887 28.2452C806.486 28.2452 807.896 28.4178 809.116 28.7629C810.358 29.0864 811.494 29.6041 812.525 30.3159V35.0072C811.6 34.2308 810.537 33.67 809.337 33.3248C808.159 32.9582 806.812 32.7748 805.297 32.7748C803.887 32.7748 802.614 33.0768 801.478 33.6807C800.363 34.2631 799.479 35.1043 798.826 36.2043C798.174 37.3044 797.848 38.5877 797.848 40.0545C797.848 41.5428 798.142 42.8477 798.731 43.9694C799.342 45.0694 800.194 45.9214 801.288 46.5253C802.382 47.1293 803.645 47.4313 805.076 47.4313C806.381 47.4313 807.517 47.194 808.485 46.7195V42.3516H804.918V38.728H813.125V49.6314C811.042 51.098 808.296 51.8316 804.887 51.8316Z" fill="#81818B"/>
<path d="M814.233 35.8161H818.842V38.0486C819.452 37.2936 820.304 36.722 821.398 36.3338C822.492 35.924 823.735 35.7191 825.123 35.7191V39.4398C823.671 39.4398 822.387 39.6663 821.272 40.1192C820.178 40.5722 819.42 41.2624 819 42.1899V51.3463H814.233V35.8161Z" fill="#81818B"/>
<path d="M834.283 51.8316C831.379 51.8316 829.095 51.1195 827.433 49.6958C825.771 48.2511 824.939 46.2342 824.939 43.6458C824.939 41.079 825.676 39.0515 827.149 37.5633C828.643 36.0749 830.769 35.3308 833.525 35.3308C835.335 35.3308 836.871 35.6759 838.134 36.3661C839.396 37.0563 840.354 38.0162 841.006 39.2456C841.659 40.4535 841.985 41.8232 841.985 43.3546V45.3282H829.485C829.821 47.3127 831.631 48.305 834.914 48.305C835.882 48.305 836.882 48.2187 837.913 48.0459C838.944 47.8734 839.838 47.6361 840.596 47.3342V50.764C839.859 51.0871 838.912 51.3462 837.755 51.5405C836.598 51.7342 835.44 51.8316 834.283 51.8316ZM837.471 42.1575C837.408 41.1222 837.029 40.3241 836.335 39.7633C835.64 39.181 834.682 38.8897 833.462 38.8897C832.263 38.8897 831.316 39.181 830.621 39.7633C829.927 40.3457 829.548 41.1438 829.485 42.1575H837.471Z" fill="#81818B"/>
<path d="M851.754 51.8316C848.851 51.8316 846.567 51.1195 844.905 49.6958C843.242 48.2511 842.411 46.2342 842.411 43.6458C842.411 41.079 843.147 39.0515 844.621 37.5633C846.115 36.0749 848.24 35.3308 850.997 35.3308C852.806 35.3308 854.343 35.6759 855.606 36.3661C856.868 37.0563 857.825 38.0162 858.477 39.2456C859.13 40.4535 859.456 41.8232 859.456 43.3546V45.3282H846.956C847.293 47.3127 849.103 48.305 852.386 48.305C853.354 48.305 854.354 48.2187 855.384 48.0459C856.415 47.8734 857.31 47.6361 858.067 47.3342V50.764C857.331 51.0871 856.384 51.3462 855.227 51.5405C854.069 51.7342 852.912 51.8316 851.754 51.8316ZM854.943 42.1575C854.879 41.1222 854.501 40.3241 853.807 39.7633C853.111 39.181 852.154 38.8897 850.934 38.8897C849.734 38.8897 848.788 39.181 848.093 39.7633C847.398 40.3457 847.02 41.1438 846.956 42.1575H854.943Z" fill="#81818B"/>
<path d="M860.515 35.8161H865.122V37.725C865.818 36.927 866.638 36.3338 867.585 35.9455C868.553 35.5357 869.563 35.3308 870.615 35.3308C872.678 35.3308 874.214 35.9024 875.223 37.0456C876.255 38.1672 876.771 39.6878 876.771 41.6075V51.3462H872.004V42.1575C872.004 40.1516 871.099 39.1486 869.289 39.1486C868.49 39.1486 867.743 39.3535 867.048 39.7633C866.354 40.1516 865.765 40.734 865.28 41.5104V51.3462H860.515V35.8161Z" fill="#81818B"/>
<path d="M880.975 33.4219C880.239 33.4219 879.619 33.1739 879.114 32.6777C878.608 32.1817 878.356 31.5561 878.356 30.8012C878.356 30.0679 878.608 29.4531 879.114 28.957C879.619 28.4394 880.239 28.1805 880.975 28.1805C881.712 28.1805 882.333 28.4394 882.838 28.957C883.343 29.4531 883.596 30.0679 883.596 30.8012C883.596 31.5561 883.343 32.1817 882.838 32.6777C882.333 33.1739 881.712 33.4219 880.975 33.4219ZM878.577 35.8161H883.375V51.3462H878.577V35.8161Z" fill="#81818B"/>
<path d="M891.504 51.8316C890.368 51.8316 889.147 51.7018 887.842 51.4431C886.559 51.2059 885.549 50.8608 884.812 50.4079V46.5901C885.654 47.1077 886.664 47.5283 887.842 47.8518C889.021 48.1752 890.115 48.337 891.125 48.337C891.988 48.337 892.619 48.2616 893.019 48.1108C893.418 47.9597 893.618 47.6793 893.618 47.2695C893.618 46.946 893.503 46.6871 893.271 46.493C893.04 46.2773 892.682 46.0939 892.198 45.943C891.735 45.7704 890.956 45.5224 889.862 45.1988C888.579 44.8106 887.568 44.4223 886.832 44.0341C886.117 43.6242 885.57 43.1174 885.191 42.5134C884.833 41.9095 884.654 41.1329 884.654 40.1839C884.654 38.5662 885.274 37.3583 886.517 36.5603C887.779 35.7406 889.483 35.3308 891.63 35.3308C892.682 35.3308 893.766 35.4494 894.881 35.6867C896.017 35.9024 896.891 36.1936 897.501 36.5603V40.281C896.891 39.8712 896.091 39.5368 895.102 39.278C894.134 39.0192 893.187 38.8897 892.261 38.8897C891.398 38.8897 890.725 38.976 890.241 39.1486C889.778 39.3212 889.546 39.6447 889.546 40.1192C889.546 40.529 889.767 40.8418 890.209 41.0575C890.672 41.2732 891.525 41.5428 892.766 41.8664L893.398 42.0281C894.723 42.3948 895.754 42.8046 896.491 43.2576C897.227 43.689 897.743 44.2174 898.038 44.8429C898.353 45.4469 898.511 46.2126 898.511 47.1401C898.511 48.5637 897.911 49.7068 896.712 50.5697C895.513 51.4107 893.776 51.8316 891.504 51.8316Z" fill="#81818B"/>
<path d="M899.613 27.4364H904.379V37.5956C905.095 36.8407 905.905 36.2799 906.809 35.9132C907.715 35.5249 908.683 35.3308 909.714 35.3308C911.776 35.3308 913.312 35.9024 914.322 37.0456C915.353 38.1672 915.869 39.6878 915.869 41.6076V51.3463H911.103V42.1576C911.103 40.1516 910.198 39.1486 908.388 39.1486C907.588 39.1486 906.842 39.3535 906.147 39.7633C905.452 40.1516 904.863 40.734 904.379 41.5104V51.3463H899.613V27.4364Z" fill="#81818B"/>
<path fill-rule="evenodd" clip-rule="evenodd" d="M776.677 32.0142C776.677 36.124 773.427 39.4556 769.417 39.4556C765.408 39.4556 762.158 36.124 762.158 32.0142C762.158 27.9044 765.408 24.5728 769.417 24.5728C773.427 24.5728 776.677 27.9044 776.677 32.0142ZM752.53 38.9148C760.44 38.3683 767.333 44.4383 767.975 52.5628C768.042 53.4045 768.039 54.2356 767.971 55.0504C760.061 55.5969 753.168 49.5268 752.526 41.4024C752.459 40.5606 752.462 39.7293 752.53 38.9148ZM773.088 54.7659C781.015 54.1075 786.936 47.042 786.403 38.9348C785.609 38.8651 784.798 38.8618 783.976 38.93C776.05 39.5882 770.128 46.6539 770.661 54.7611C771.456 54.831 772.267 54.8341 773.088 54.7659Z" fill="#81818B"/>
<path fill-rule="evenodd" clip-rule="evenodd" d="M998.595 31.2361C1001.34 27.7339 1005.72 25.4649 1010.67 25.4649C1015.64 25.4649 1020.06 27.7606 1022.79 31.298C1022.68 31.4118 1022.57 31.5298 1022.47 31.6476C1021.97 32.2645 1021.6 33.059 1021.29 33.8659C1020.68 35.4887 1020.22 37.6085 1019.79 39.5935L1019.75 39.7719C1019.32 41.7533 1018.92 43.5959 1018.44 44.9638C1018.23 45.5783 1018.02 46.0128 1017.84 46.291C1017.65 46.0105 1017.43 45.5708 1017.21 44.9475C1016.69 43.5403 1016.26 41.6263 1015.8 39.5827L1015.78 39.5157V39.5157C1015.34 37.5527 1014.87 35.4699 1014.29 33.8756C1013.99 33.0747 1013.63 32.2881 1013.16 31.6769C1012.7 31.0772 1011.93 30.4003 1010.81 30.4003C1009.69 30.4003 1008.92 31.0698 1008.45 31.6629C1007.97 32.2701 1007.59 33.0534 1007.28 33.8547C1006.66 35.4682 1006.16 37.5789 1005.68 39.5666L1005.63 39.7719C1005.17 41.7409 1004.73 43.5818 1004.23 44.9523C1004.04 45.4757 1003.86 45.8739 1003.7 46.1583C1003.54 45.8752 1003.37 45.4797 1003.19 44.9607C1002.71 43.6194 1002.29 41.8301 1001.84 39.9083L1001.77 39.5719C1001.3 37.583 1000.8 35.4685 1000.17 33.85C999.856 33.0457 999.473 32.2584 998.978 31.6484C998.866 31.5103 998.739 31.3701 998.595 31.2361ZM996.937 33.9253C997.067 34.1701 997.205 34.4736 997.348 34.8406C997.893 36.2416 998.355 38.1533 998.83 40.1905L998.923 40.5875C999.356 42.4464 999.806 44.38 1000.34 45.8739C1000.62 46.6684 1000.96 47.4466 1001.4 48.0514C1001.81 48.6235 1002.56 49.3623 1003.7 49.3623C1004.84 49.3623 1005.58 48.627 1006 48.0576C1006.44 47.4542 1006.79 46.6769 1007.08 45.8818C1007.63 44.3584 1008.1 42.3794 1008.55 40.4855V40.4854L1008.62 40.1959C1009.1 38.1574 1009.57 36.2419 1010.11 34.8358C1010.36 34.1843 1010.59 33.7305 1010.8 33.449C1010.99 33.7281 1011.21 34.1747 1011.45 34.815C1011.96 36.2222 1012.4 38.1361 1012.86 40.1798L1012.87 40.2467C1013.31 42.2098 1013.78 44.2926 1014.36 45.8867C1014.66 46.6879 1015.02 47.4745 1015.49 48.0855C1015.95 48.6854 1016.72 49.3623 1017.85 49.3623C1018.98 49.3623 1019.74 48.6792 1020.2 48.074C1020.66 47.4599 1021.01 46.6707 1021.29 45.8708C1021.84 44.3344 1022.27 42.3408 1022.68 40.4444V40.4443L1022.74 40.169C1023.18 38.1278 1023.6 36.2214 1024.13 34.8246C1024.24 34.5208 1024.35 34.2617 1024.46 34.0441C1025.26 35.7921 1025.71 37.7223 1025.71 39.7513C1025.71 47.6413 1018.97 54.0377 1010.67 54.0377C1002.37 54.0377 995.634 47.6413 995.634 39.7513C995.634 37.6762 996.099 35.7044 996.937 33.9253ZM1010.67 22.6077C1000.7 22.6077 992.627 30.2831 992.627 39.7513C992.627 49.2194 1000.7 56.8948 1010.67 56.8948C1020.64 56.8948 1028.71 49.2194 1028.71 39.7513C1028.71 30.2831 1020.64 22.6077 1010.67 22.6077ZM1011.01 33.2098C1011.01 33.2101 1011.01 33.2128 1011 33.2167C1011.01 33.2114 1011.01 33.2095 1011.01 33.2098ZM1010.6 33.2117C1010.59 33.2077 1010.59 33.2049 1010.59 33.2045C1010.59 33.2042 1010.59 33.2062 1010.6 33.2117ZM1017.62 46.5623C1017.62 46.5623 1017.62 46.5592 1017.63 46.5552C1017.62 46.5605 1017.62 46.5627 1017.62 46.5623ZM1018.05 46.5508C1018.06 46.5548 1018.07 46.5574 1018.07 46.5579C1018.07 46.5583 1018.06 46.5561 1018.05 46.5508ZM1003.39 46.5879C1003.39 46.5875 1003.39 46.5835 1003.4 46.5778C1003.39 46.5853 1003.39 46.5884 1003.39 46.5879ZM1004 46.5804C1004.01 46.5862 1004.01 46.5901 1004.01 46.5906C1004.01 46.591 1004.01 46.5884 1004 46.5804Z" fill="#81818B"/>
<path d="M1038.68 49.9007L1034.3 35.6801H1038.13L1040.73 45.9154L1043.75 35.6801H1048.03L1051.05 45.9154L1053.67 35.6801H1057.51L1053.1 49.9007H1049.09L1045.89 39.2639L1042.69 49.9007H1038.68Z" fill="#81818B"/>
<path d="M1063.13 50.2449C1061.84 50.2449 1060.79 50.0533 1059.96 49.6711C1059.14 49.2698 1058.52 48.7442 1058.12 48.0943C1057.72 47.4444 1057.52 46.7277 1057.52 45.9442C1057.52 44.6254 1058.06 43.5549 1059.15 42.733C1060.23 41.9112 1061.86 41.5002 1064.03 41.5002H1067.84V41.1562C1067.84 40.1813 1067.54 39.4646 1066.96 39.0059C1066.38 38.5471 1065.65 38.3178 1064.79 38.3178C1064 38.3178 1063.32 38.4993 1062.74 38.8625C1062.15 39.2066 1061.79 39.7226 1061.65 40.4107H1057.88C1057.98 39.3786 1058.34 38.4802 1058.96 37.7157C1059.61 36.9512 1060.43 36.3682 1061.44 35.9668C1062.45 35.5463 1063.57 35.3361 1064.82 35.3361C1066.95 35.3361 1068.63 35.8425 1069.86 36.8556C1071.09 37.8686 1071.7 39.3022 1071.7 41.1562V49.9007H1068.41L1068.05 47.6072C1067.6 48.3717 1066.98 49.0022 1066.18 49.4995C1065.39 49.9963 1064.38 50.2449 1063.13 50.2449ZM1064 47.3776C1065.11 47.3776 1065.97 47.0334 1066.57 46.3455C1067.19 45.6575 1067.58 44.8067 1067.75 43.7938H1064.46C1063.43 43.7938 1062.7 43.9754 1062.25 44.3386C1061.81 44.6824 1061.59 45.1129 1061.59 45.6287C1061.59 46.1831 1061.81 46.6131 1062.25 46.9188C1062.7 47.2245 1063.28 47.3776 1064 47.3776Z" fill="#81818B"/>
<path d="M1077.78 49.9007L1072.29 35.6801H1076.33L1080.13 46.4317L1083.93 35.6801H1087.98L1082.46 49.9007H1077.78Z" fill="#81818B"/>
<path d="M1095.74 50.2449C1094.23 50.2449 1092.9 49.9388 1091.73 49.3273C1090.56 48.7155 1089.65 47.8554 1088.98 46.7467C1088.32 45.6385 1087.99 44.3577 1087.99 42.905C1087.99 41.4333 1088.31 40.124 1088.95 38.9772C1089.62 37.8304 1090.52 36.9416 1091.67 36.3108C1092.84 35.661 1094.2 35.3361 1095.77 35.3361C1097.24 35.3361 1098.54 35.6419 1099.67 36.2535C1100.79 36.8651 1101.67 37.7061 1102.29 38.7765C1102.93 39.8277 1103.26 41.0032 1103.26 42.303C1103.26 42.5132 1103.25 42.733 1103.23 42.9624C1103.23 43.1918 1103.22 43.4307 1103.2 43.6792H1091.82C1091.9 44.7877 1092.3 45.6575 1093.03 46.2884C1093.77 46.9188 1094.67 47.2343 1095.71 47.2343C1096.5 47.2343 1097.15 47.0719 1097.67 46.7467C1098.22 46.403 1098.62 45.9632 1098.88 45.4279H1102.8C1102.52 46.3264 1102.05 47.1485 1101.39 47.8939C1100.74 48.6199 1099.94 49.1933 1098.97 49.614C1098.03 50.0343 1096.95 50.2449 1095.74 50.2449ZM1095.77 38.3178C1094.83 38.3178 1093.99 38.5758 1093.27 39.0919C1092.54 39.5888 1092.08 40.3534 1091.88 41.3855H1099.33C1099.27 40.4489 1098.91 39.7035 1098.25 39.1492C1097.58 38.5949 1096.76 38.3178 1095.77 38.3178Z" fill="#81818B"/>
<path d="M1105.3 49.9007V29.2578H1109.16V49.9007H1105.3Z" fill="#81818B"/>
<path d="M1119.17 50.2449C1117.66 50.2449 1116.33 49.9388 1115.16 49.3273C1113.99 48.7155 1113.08 47.8554 1112.41 46.7467C1111.75 45.6385 1111.42 44.3577 1111.42 42.905C1111.42 41.4333 1111.74 40.124 1112.38 38.9772C1113.05 37.8304 1113.95 36.9416 1115.1 36.3108C1116.26 35.661 1117.63 35.3361 1119.2 35.3361C1120.67 35.3361 1121.97 35.6419 1123.09 36.2535C1124.22 36.8651 1125.1 37.7061 1125.72 38.7765C1126.36 39.8277 1126.69 41.0032 1126.69 42.303C1126.69 42.5132 1126.68 42.733 1126.66 42.9624C1126.66 43.1918 1126.64 43.4307 1126.62 43.6792H1115.25C1115.33 44.7877 1115.73 45.6575 1116.46 46.2884C1117.2 46.9188 1118.1 47.2343 1119.14 47.2343C1119.93 47.2343 1120.58 47.0719 1121.1 46.7467C1121.65 46.403 1122.05 45.9632 1122.31 45.4279H1126.23C1125.95 46.3264 1125.48 47.1485 1124.81 47.8939C1124.17 48.6199 1123.37 49.1933 1122.4 49.614C1121.46 50.0343 1120.38 50.2449 1119.17 50.2449ZM1119.2 38.3178C1118.26 38.3178 1117.42 38.5758 1116.7 39.0919C1115.97 39.5888 1115.51 40.3534 1115.31 41.3855H1122.76C1122.7 40.4489 1122.34 39.7035 1121.68 39.1492C1121.01 38.5949 1120.19 38.3178 1119.2 38.3178Z" fill="#81818B"/>
<path d="M1134.91 50.2449C1133.59 50.2449 1132.42 50.044 1131.41 49.6428C1130.41 49.222 1129.6 48.6487 1129 47.9222C1128.4 47.1962 1128.03 46.3552 1127.91 45.3996H1131.8C1131.93 45.9535 1132.25 46.4317 1132.77 46.833C1133.31 47.2152 1134.01 47.4064 1134.85 47.4064C1135.7 47.4064 1136.31 47.244 1136.69 46.9188C1137.1 46.5941 1137.3 46.2212 1137.3 45.8008C1137.3 45.189 1137.02 44.778 1136.45 44.5678C1135.89 44.3386 1135.1 44.1188 1134.1 43.9085C1133.45 43.7747 1132.8 43.6123 1132.14 43.4211C1131.47 43.23 1130.86 42.991 1130.3 42.7044C1129.75 42.3985 1129.31 42.0163 1128.97 41.5575C1128.63 41.0797 1128.46 40.4967 1128.46 39.8086C1128.46 38.5471 1128.98 37.4864 1130.02 36.6262C1131.09 35.7661 1132.58 35.3361 1134.49 35.3361C1136.26 35.3361 1137.67 35.7279 1138.71 36.5115C1139.78 37.2952 1140.41 38.3751 1140.62 39.7513H1136.96C1136.74 38.7001 1135.91 38.1744 1134.46 38.1744C1133.74 38.1744 1133.17 38.3082 1132.77 38.5758C1132.39 38.8434 1132.2 39.1779 1132.2 39.5793C1132.2 39.9998 1132.49 40.3343 1133.07 40.5828C1133.66 40.8312 1134.43 41.0606 1135.4 41.2709C1136.44 41.5002 1137.4 41.7582 1138.26 42.0449C1139.15 42.3125 1139.85 42.7235 1140.37 43.2778C1140.9 43.8129 1141.16 44.5869 1141.16 45.6C1141.18 46.4795 1140.94 47.2723 1140.43 47.9797C1139.93 48.6867 1139.21 49.2411 1138.26 49.6428C1137.32 50.044 1136.2 50.2449 1134.91 50.2449Z" fill="#81818B"/>
<path d="M1149.56 50.2449C1148.23 50.2449 1147.06 50.044 1146.06 49.6428C1145.05 49.222 1144.25 48.6487 1143.65 47.9222C1143.04 47.1962 1142.68 46.3552 1142.56 45.3996H1146.45C1146.57 45.9535 1146.89 46.4317 1147.42 46.833C1147.96 47.2152 1148.65 47.4064 1149.5 47.4064C1150.34 47.4064 1150.96 47.244 1151.34 46.9188C1151.74 46.5941 1151.94 46.2212 1151.94 45.8008C1151.94 45.189 1151.66 44.778 1151.1 44.5678C1150.54 44.3386 1149.75 44.1188 1148.74 43.9085C1148.1 43.7747 1147.45 43.6123 1146.78 43.4211C1146.12 43.23 1145.51 42.991 1144.94 42.7044C1144.4 42.3985 1143.96 42.0163 1143.61 41.5575C1143.27 41.0797 1143.1 40.4967 1143.1 39.8086C1143.1 38.5471 1143.63 37.4864 1144.67 36.6262C1145.74 35.7661 1147.23 35.3361 1149.14 35.3361C1150.91 35.3361 1152.32 35.7279 1153.36 36.5115C1154.43 37.2952 1155.06 38.3751 1155.26 39.7513H1151.61C1151.39 38.7001 1150.56 38.1744 1149.11 38.1744C1148.38 38.1744 1147.82 38.3082 1147.42 38.5758C1147.03 38.8434 1146.84 39.1779 1146.84 39.5793C1146.84 39.9998 1147.13 40.3343 1147.72 40.5828C1148.3 40.8312 1149.08 41.0606 1150.04 41.2709C1151.09 41.5002 1152.04 41.7582 1152.91 42.0449C1153.79 42.3125 1154.5 42.7235 1155.02 43.2778C1155.54 43.8129 1155.81 44.5869 1155.81 45.6C1155.83 46.4795 1155.58 47.2723 1155.08 47.9797C1154.58 48.6867 1153.85 49.2411 1152.91 49.6428C1151.96 50.044 1150.85 50.2449 1149.56 50.2449Z" fill="#81818B"/>
</g>
<defs>
<clipPath id="clip0_1_87">
<rect width="1152" height="64" fill="white" transform="translate(0 0.265625)"/>
</clipPath>
</defs>
</svg>
